<?xml version="1.0" encoding="utf-8"?>
<!-- Generator: Adobe Illustrator 15.1.0, SVG Export Plug-In  -->
<!DOCTYPE svg PUBLIC "-//W3C//DTD SVG 1.1//EN" "http://www.w3.org/Graphics/SVG/1.1/DTD/svg11.dtd" [
	<!ENTITY ns_flows "http://ns.adobe.com/Flows/1.0/">
]>
<svg version="1.1"
	 xmlns="http://www.w3.org/2000/svg" xmlns:xlink="http://www.w3.org/1999/xlink" xmlns:a="http://ns.adobe.com/AdobeSVGViewerExtensions/3.0/"
	 x="0px" y="0px" width="150px" height="50px" viewBox="-1.229 -1.364 150 50" enable-background="new -1.229 -1.364 150 50"
	 xml:space="preserve">
<defs>
</defs>
<path fill-rule="evenodd" clip-rule="evenodd" d="M14.924,30.997c-0.182-0.53-0.635-0.847-0.944-1.287
	c-0.845-1.204-1.386-3.222-1.392-5.328c-0.004-1.584,0.487-3.025,1.652-3.458c0.175-0.065,0.367-0.022,0.52-0.202
	c-0.529-0.284-1.078,0.207-1.487,0.378c-0.024-0.143,0.071-0.16,0.047-0.303c-0.481-0.107-0.69,0.42-1.062,0.429
	c0.497-1.232,3.111-1.171,4.153-0.479c-0.084,0.065-0.296-0.061-0.401,0.025c0.289,0.426,0.767,0.506,1.109,0.732
	c1.073,0.707,1.744,1.927,1.771,3.837c0.029,2.057-0.786,3.692-1.511,5.074c-0.111,0.214-0.294,0.458-0.26,0.657
	c0.077,0.434,1.305,0.367,1.534,0.075c0.115-0.146,0.567-1.474,0.921-1.161c0.109,0.097,0.07,0.293,0.046,0.506
	c0.685-0.467,0.995-1.475,1.393-2.298c0.129-0.269,0.253-0.557,0.377-0.834c0.125-0.276,0.298-0.522,0.401-0.782
	c0.101-0.254,0.136-0.533,0.237-0.782c0.271-0.686,0.611-1.412,0.896-2.122c0.09-0.073,0.234-0.087,0.283-0.202
	c0-0.196-0.119-0.218-0.094-0.379c0.032-0.213,0.386-0.356,0.495-0.504c0.092-0.307,0.23-0.633,0.354-0.985
	c0.182-0.513,0.285-0.861,0.59-1.212c0.233-0.268,0.522-0.329,1.015-0.202c0.402,0.104,0.99,0.646,1.274,0.934
	c1.042,1.056,1.78,2.988,1.417,5.025c-0.438,2.451-2.026,4.076-3.989,4.923c0.651,0.535,1.666,0.851,2.761,1.009
	c0.295,0.044,0.511,0.133,0.708-0.05c0.124,0.153,0.75,0.177,0.755,0.455c0.004,0.193-0.208,0.174-0.448,0.252
	c-0.169,0.055-0.288,0.174-0.402,0.202c-0.157,0.039-0.407,0.011-0.661,0.024c-0.209,0.013-0.417,0.085-0.566,0.102
	c-0.454,0.051-0.906-0.07-1.321-0.202c-0.794-0.252-1.423-0.513-2.053-1.01c-0.332-0.261-1.063-0.964-0.307-1.11
	c0.147-0.603,0.999-0.465,1.511-0.707c0.24-0.113,0.537-0.381,0.802-0.581c1.422-1.066,2.653-3.199,1.959-5.755
	c-0.039-0.144-0.125-0.319-0.141-0.481c-0.016-0.154,0.055-0.23,0.023-0.403c-0.041-0.222-0.205-0.258-0.425-0.379
	c-0.007-0.408-0.32-0.708-0.59-0.606c0.064-0.335-0.326-0.514-0.614-0.63c-0.197,0.499-0.453,1.044-0.59,1.616
	c-0.069,0.289-0.1,0.549-0.213,0.808c-0.107,0.246-0.268,0.455-0.283,0.731c0.083,0.104,0.155-0.189,0.377-0.102
	c0.167,0.148,0.004,0.499,0.142,0.683c0.114,0.029,0.157-0.237,0.33-0.228c0.065-0.216,0.131-0.495,0.331-0.456
	c0.249,0.051,0.083,0.543,0.166,0.834c0.181-0.004,0.149-0.357,0.354-0.253c-0.062,0.283-0.071,1.385-0.472,1.288
	c-0.162-0.039-0.14-0.277-0.117-0.505c-0.081-0.042-0.163,0.129-0.331,0.075c-0.093,0.294-0.61,0.805-0.567-0.025
	c-0.091-0.007-0.289,0.106-0.4-0.024c-0.12,0.345-0.352,0.777-0.473,1.262c-0.044,0.178-0.025,0.385-0.047,0.606
	c-0.029,0.297-0.167,0.637-0.307,0.934c-0.163,0.347-0.31,0.817-0.731,0.731c-0.283,0.278-0.455,0.675-0.684,1.011
	c0.284,0.316-0.044,0.888-0.448,0.682c-0.66,0.701-1.469,1.509-2.573,1.566c-0.088-0.023-0.154-0.178-0.26-0.229
	c-0.225-0.109-0.655-0.085-1.015-0.177c-0.345-0.088-0.654-0.284-0.896-0.277c-0.209,0.005-0.415,0.229-0.661,0.378
	c-0.901,0.553-2.228,0.773-3.775,0.683c-0.679-0.04-1.352-0.256-1.842-0.556c-0.15-0.093-0.363-0.196-0.4-0.404
	c0.146-0.115,0.395,0.028,0.519,0c-0.166-0.244-0.444-0.416-0.708-0.606c-0.257-0.184-0.518-0.444-0.779-0.581
	c-0.099-0.05-0.229-0.051-0.33-0.1c-0.193-0.094-0.427-0.253-0.591-0.379c-0.653-0.506-1.228-1.217-1.628-1.944
	c-0.002-0.119,0.078-0.151,0.094-0.252C6.347,27.797,6.3,27.55,6.074,27.538c-0.287-0.017-0.472,0.583-0.613,0.909
	C5.12,29.23,4.72,29.7,4.375,30.416c-0.174,0.362-0.313,0.708-0.495,1.036c-0.471,0.85-1.097,1.998-1.77,2.801
	c-0.203,0.243-0.533,0.668-0.755,0.759c-0.057,0.022-0.158-0.003-0.26,0.025C0.82,35.11,0.469,35.45,0.221,35.389
	c-0.156-0.037-0.252-0.383-0.212-0.631c0.033-0.199,0.271-0.39,0.378-0.606c0.062-0.125,0.071-0.271,0.118-0.378
	c0.12-0.275,0.383-0.496,0.566-0.783c0.569-0.893,1.137-1.938,1.818-2.777c0.134-0.164,0.324-0.286,0.447-0.454
	c0.191-0.259,0.331-0.602,0.496-0.908c0.33-0.611,0.61-1.146,0.945-1.818c0.143-0.287,0.428-0.739,0.425-0.959
	c-0.004-0.244-0.422-0.838-0.543-1.061c-1.14-2.093-2.107-4.444-2.926-7.019c-0.342-1.071-0.612-2.209-0.826-3.383
	C0.586,12.86,0.564,10.727,0.812,8.88c0.378-2.815,1.256-5.53,2.714-7.22C3.77,1.376,4.11,1.15,4.257,0.776
	C4.111,0.574,3.834,0.871,3.62,0.751C3.683,0.449,4.031,0.323,4.28,0.221C4.855-0.013,5.645-0.022,6.428,0.02
	C7.584,0.08,8.511,0.703,9.237,1.332c0.571,0.495,0.917,0.899,1.321,1.565c0.18,0.297,0.473,0.729,0.543,1.035
	c0.081,0.346,0.076,0.628,0.142,0.908c0.109,0.463,0.256,0.887,0.354,1.363c0.279,1.356,0.386,3.082,0.212,4.722
	c-0.208,1.978-0.713,3.711-1.297,5.478c-0.963,2.913-2.209,5.633-3.351,8.433c-0.167,0.409-0.403,1-0.377,1.313
	c0.024,0.308,0.455,0.792,0.661,1.085c0.699,0.991,1.583,2.037,2.454,2.727c0.617,0.489,1.363,0.959,2.195,1.211
	C12.938,31.43,14.214,31.458,14.924,30.997z M10.439,8.174c-0.035-0.354-0.18-0.68-0.188-1.01c-0.004-0.147,0.029-0.256,0.023-0.378
	c-0.026-0.551-0.296-1.293-0.52-1.818C9.511,4.391,9.242,3.951,8.883,3.528C8.205,2.73,7.271,1.797,6.003,1.836
	c-1.123,0.036-1.875,1.27-2.336,2.197c-0.538,1.081-0.984,2.22-1.109,3.484C2.522,7.878,2.392,8.278,2.346,8.679
	c-0.119,1.015-0.248,1.967-0.307,2.979c-0.109,1.885,0.262,3.425,0.685,4.974c0.252,0.924,0.514,1.81,0.802,2.651
	c0.096,0.279,0.264,0.532,0.354,0.808c0.036,0.113,0.038,0.244,0.071,0.354c0.213,0.713,0.559,1.404,0.85,2.07
	c0.297,0.682,0.619,1.345,0.991,1.944c0.44-0.304,0.592-0.827,0.826-1.364c0.262-0.602,0.534-1.17,0.779-1.767
	c0.128-0.313,0.295-0.624,0.377-0.91c0.061-0.21,0.052-0.459,0.142-0.682c0.055-0.135,0.145-0.251,0.212-0.378
	c0.072-0.137,0.111-0.274,0.166-0.429c0.716-2.004,1.465-4.159,1.793-6.564c-0.089-0.153-0.169,0.2-0.307,0.076
	c-0.006-0.318,0.017-0.604,0.142-0.783c0.121-0.103,0.19,0.169,0.283,0.025C10.361,10.657,10.561,9.369,10.439,8.174z
	 M14.263,22.059c-1.04,0.734-0.875,3.175-0.613,4.622c0.092,0.507,0.175,1.132,0.354,1.539c0.174,0.397,0.439,0.769,0.778,1.187
	c0.23,0.284,0.735,0.951,1.039,0.935c0.276-0.017,0.646-0.682,0.826-0.984c0.665-1.119,1.293-2.644,1.18-4.418
	c-0.059-0.917-0.36-1.574-0.779-2.045c-0.49-0.553-1.352-1.146-2.266-1.011C14.614,21.907,14.39,21.971,14.263,22.059z"/>
<path fill-rule="evenodd" clip-rule="evenodd" d="M116.708,10.951c-0.019,0.113-0.169,0.141-0.26,0.101
	C116.42,10.877,116.659,10.826,116.708,10.951z"/>
<path fill-rule="evenodd" clip-rule="evenodd" d="M9.095,11.607c0.136,0.341-0.038,0.761-0.189,0.96
	C8.821,12.286,8.826,11.677,9.095,11.607z"/>
<path fill-rule="evenodd" clip-rule="evenodd" d="M138.867,11.784c0.014,0.1-0.035,0.131-0.07,0.177
	c-0.101-0.002-0.149-0.059-0.142-0.177C138.711,11.733,138.818,11.711,138.867,11.784z"/>
<path fill-rule="evenodd" clip-rule="evenodd" d="M134.03,12.289c0.231-0.071,0.248-0.397,0.519-0.404
	c0.374-0.01,0.411,0.469,0.165,0.605c-0.041,0.023-0.144,0.024-0.213,0.05c-0.245,0.094-0.396,0.219-0.495-0.151
	c-0.112,0.106-0.341,0.167-0.542,0.101C132.973,12.018,134.077,11.535,134.03,12.289z"/>
<path fill-rule="evenodd" clip-rule="evenodd" d="M135.28,12.264c0.108,0.172-0.025,0.38-0.165,0.379
	C134.829,12.64,134.884,12.079,135.28,12.264z"/>
<path fill-rule="evenodd" clip-rule="evenodd" d="M133.416,12.541c0.015,0.196-0.036,0.283-0.141,0.304
	C132.902,12.914,133.06,12.207,133.416,12.541z"/>
<path fill-rule="evenodd" clip-rule="evenodd" d="M134.383,13.072c-0.082,0.122-0.294,0.122-0.377,0
	C133.904,12.669,134.483,12.678,134.383,13.072z"/>
<path fill-rule="evenodd" clip-rule="evenodd" d="M134.808,12.996c0.042-0.239,0.4-0.27,0.425-0.05
	C135.259,13.176,134.909,13.215,134.808,12.996z"/>
<path fill-rule="evenodd" clip-rule="evenodd" d="M128.437,13.602c0.262-0.009,0.285,0.464,0.023,0.479
	c-0.053-0.146-0.255-0.131-0.306-0.278C128.242,13.73,128.427,13.76,128.437,13.602z"/>
<path fill-rule="evenodd" clip-rule="evenodd" d="M131.457,18.448c0.266,0.038,0.215,1.011,0.213,1.389
	c-0.006,1.089-0.205,1.947-0.425,2.829c-0.086,0.346-0.212,1.085-0.543,1.035c-0.269-0.042-0.168-0.44-0.118-0.657
	c0.061-0.253,0.147-0.576,0.165-0.732c0.016-0.132-0.014-0.327,0-0.48c0.024-0.257,0.165-0.555,0.213-0.883
	c0.044-0.314,0.119-0.64,0.143-0.934c0.015-0.209-0.026-0.423,0-0.606C131.121,19.277,131.357,18.513,131.457,18.448z"/>
<path fill-rule="evenodd" clip-rule="evenodd" d="M137.9,28.119c0.353-0.025,0.619,0.207,0.92,0.304
	c1.836,0.589,3.573-0.491,4.814-1.414c1.091-0.812,1.931-1.729,2.572-2.778c0.191-0.313,0.545-0.67,0.777-1.085
	c0.143-0.251,0.263-0.554,0.401-0.935c0.109-0.293,0.186-0.87,0.473-0.859c0.53,0.021-0.048,1.298-0.117,1.465
	c-0.313,0.738-0.6,1.204-1.016,1.742c-0.514,0.666-0.994,1.346-1.604,1.944c-0.243,0.238-0.572,0.414-0.731,0.657
	c-0.061,0.093-0.042,0.207-0.118,0.328c-0.093,0.145-0.433,0.381-0.59,0.429c-0.086,0.026-0.2-0.005-0.308,0.025
	c-0.209,0.061-0.462,0.27-0.707,0.404c-0.649,0.357-1.646,0.733-2.478,0.832c-0.704,0.085-1.276-0.057-1.747-0.327
	C138.188,28.704,137.811,28.5,137.9,28.119z"/>
<path fill-rule="evenodd" clip-rule="evenodd" d="M145.712,24.332c-0.103-0.3,0.091-0.578,0.212-0.808
	c0.26-0.495,0.447-0.863,0.685-1.49c0.057-0.15,0.2-0.672,0.425-0.656c0.339,0.025,0.122,0.66,0.047,0.883
	c-0.205,0.625-0.438,1.108-0.731,1.641C146.221,24.134,146.06,24.52,145.712,24.332z"/>
<path fill-rule="evenodd" clip-rule="evenodd" d="M143.872,22.009c0.083,0.118,0.007,0.359-0.19,0.329
	C143.62,22.188,143.692,21.983,143.872,22.009z"/>
<path fill-rule="evenodd" clip-rule="evenodd" d="M144.721,22.059c0.014,0.141-0.022,0.229-0.143,0.228
	C144.565,22.146,144.602,22.058,144.721,22.059z"/>
<path fill-rule="evenodd" clip-rule="evenodd" d="M25.85,22.186c0.12,0.239-0.134,0.472-0.283,0.278
	C25.517,22.208,25.693,22.071,25.85,22.186z"/>
<path fill-rule="evenodd" clip-rule="evenodd" d="M110.902,22.539c0.334-0.166,0.431,0.487,0.52,0.859
	c0.094,0.399,0.204,0.9-0.048,0.958c-0.279,0.065-0.35-0.382-0.425-0.706C110.87,23.304,110.633,22.672,110.902,22.539z"/>
<path fill-rule="evenodd" clip-rule="evenodd" d="M111.776,22.564c0.313-0.161,0.431,0.468,0.52,0.833
	c0.089,0.374,0.175,0.893-0.072,0.934c-0.246,0.04-0.328-0.372-0.401-0.681C111.737,23.285,111.538,22.687,111.776,22.564z"/>
<path fill-rule="evenodd" clip-rule="evenodd" d="M8.316,23.499c0.033,0.272-0.124,0.557-0.236,0.756
	C7.996,24.02,8.227,23.715,8.316,23.499z"/>
<path fill-rule="evenodd" clip-rule="evenodd" d="M50.417,25.316c0.084,0.074,0.088,0.353,0.047,0.48
	C50.401,25.687,50.419,25.491,50.417,25.316z"/>
<path fill-rule="evenodd" clip-rule="evenodd" d="M138.395,26.074c-0.23,0.298-0.747-0.108-0.73-0.354
	C137.693,25.289,138.435,25.724,138.395,26.074z"/>
<path fill-rule="evenodd" clip-rule="evenodd" d="M99.881,26.502c0.098,0.002,0.141,0.154,0.096,0.228
	C99.876,26.726,99.879,26.614,99.881,26.502z"/>
<path fill-rule="evenodd" clip-rule="evenodd" d="M32.553,26.982c0.519-0.147,0.18,1.435-0.236,1.389
	C31.875,28.324,32.348,27.041,32.553,26.982z"/>
<path fill-rule="evenodd" clip-rule="evenodd" d="M24.269,27.134c0.157,0.438-0.063,0.867-0.212,1.212
	c-0.113,0.258-0.308,0.874-0.638,0.832c-0.186-0.022-0.201-0.206-0.165-0.428c0.067-0.419,0.202-0.563,0.354-0.885
	C23.763,27.538,23.825,27.039,24.269,27.134z"/>
<path fill-rule="evenodd" clip-rule="evenodd" d="M136.06,27.134c0.244,0.01,0.378,0.132,0.448,0.327
	C136.344,27.55,136.068,27.374,136.06,27.134z"/>
<path fill-rule="evenodd" clip-rule="evenodd" d="M144.414,27.841c-0.025-0.175,0.637-0.912,0.755-0.557
	C145.253,27.545,144.646,27.923,144.414,27.841z"/>
<path fill-rule="evenodd" clip-rule="evenodd" d="M3.289,27.285c-0.031,0.431-0.225,0.904-0.543,1.111
	C2.771,27.957,3.087,27.619,3.289,27.285z"/>
<path fill-rule="evenodd" clip-rule="evenodd" d="M20.375,27.614c0.113,0.067-0.002,0.43,0.165,0.403
	c-0.168,0.459-0.077,1.196-0.66,1.213c-0.248-0.331,0.092-0.675,0.236-1.011C20.219,27.977,20.259,27.78,20.375,27.614z"/>
<path fill-rule="evenodd" clip-rule="evenodd" d="M3.832,27.967c0.06,0.04-0.042,0.121-0.047,0.176
	C3.711,28.087,3.831,28.028,3.832,27.967z"/>
<path fill-rule="evenodd" clip-rule="evenodd" d="M99.268,28.068c0.043,0.098-0.003,0.226-0.118,0.228
	C99.096,28.206,99.149,28.053,99.268,28.068z"/>
<path fill-rule="evenodd" clip-rule="evenodd" d="M33.072,30.164c-0.241-0.227,0.175-0.601,0.26-0.328
	C33.383,30,33.218,30.127,33.072,30.164z"/>
<path fill-rule="evenodd" clip-rule="evenodd" d="M96.672,30.466c-0.03,0.069-0.117,0.077-0.213,0.076
	C96.47,30.453,96.582,30.471,96.672,30.466z"/>
<path fill-rule="evenodd" clip-rule="evenodd" d="M28.611,32.158c-0.296,0.012-0.316-0.419-0.118-0.455
	C28.651,31.675,28.804,32.05,28.611,32.158z"/>
<path fill-rule="evenodd" clip-rule="evenodd" d="M28.233,33.496c0.15-0.014,0.271-0.012,0.308,0.128
	c0.103,0.397-0.714,0.527-0.708,0.175C27.836,33.607,28.03,33.515,28.233,33.496z"/>
<path fill-rule="evenodd" clip-rule="evenodd" d="M29.39,33.598c0.093,0.445-0.615,0.494-0.661,0.227
	C28.681,33.535,29.206,33.381,29.39,33.598z"/>
<path fill-rule="evenodd" clip-rule="evenodd" d="M10.817,34.859c-0.162,0.196-0.569,0.055-0.685-0.101
	C10.381,34.682,10.661,34.709,10.817,34.859z"/>
<path fill-rule="evenodd" clip-rule="evenodd" d="M136.39,25.62c-0.183-0.015-0.245,0.302-0.519,0.277
	c-0.187-0.018-0.209-0.378-0.378-0.403c-0.248-0.039-0.263,0.39-0.567,0.277c-0.774,0.699-1.713,1.424-3.091,1.49
	c-1.394,0.065-2.481-0.584-3.375-1.162c-0.255,0.147-0.408,0.404-0.684,0.53c-0.333-0.13-0.712,0.137-1.063,0.227
	c-0.851,0.222-1.958,0.136-2.689-0.252c-0.94-0.499-1.536-1.344-1.936-2.5c-0.402-1.158-0.513-2.517-0.967-3.561
	c-0.455-1.04-1.34-1.77-2.669-1.716c-1.518,0.061-2.347,1.184-2.713,2.524c-0.169,0.621-0.489,1.288-0.637,2.07
	c-0.064,0.343-0.132,0.815-0.143,1.237c-0.01,0.382-0.071,0.892,0.212,1.086c0.043-0.45-0.134-1.402,0.402-1.187
	c0.263,0.106,0.135,1.214,0,1.313c-0.127,0.092-0.269,0.023-0.402-0.051c-0.295,0.411-0.87,0.579-1.463,0.58
	c-0.144,0.001-0.289-0.085-0.424-0.074c-0.121,0.009-0.24,0.116-0.354,0.125c-0.188,0.017-0.395-0.09-0.568-0.075
	c-0.258,0.022-0.47,0.194-0.66,0c-0.006-0.158,0.03-0.237,0.023-0.43c-0.006-0.224-0.136-0.701,0.095-0.782
	c0.557-0.193,0.286,0.87,0.59,0.909c0.385,0.049-0.051-0.862,0.355-0.909c0.385-0.044,0.246,0.635,0.446,0.732
	c0.15-0.303,0.007-0.651-0.045-0.959c-0.274-1.591-0.546-3.15-1.205-4.444c-0.326-0.642-0.774-1.502-1.651-1.136
	c-0.725,0.303-1.289,1.019-1.794,1.692c-0.342,0.455-0.699,0.996-1.062,1.564c-0.117,0.184-0.294,0.393-0.308,0.556
	c-0.012,0.16,0.093,0.297,0.096,0.455c0.005,0.324-0.293,0.876-0.378,1.211c-0.107,0.42-0.258,0.794-0.425,1.136
	c-0.083,0.083,0.02-0.118-0.096-0.025c-0.644,1.126-1.274,2.381-2.902,2.5c-0.733,0.054-1.441,0.021-2.006-0.176
	c-0.371-0.131-0.684-0.333-1.156-0.43c-0.14-0.169-0.327-0.465-0.565-0.404c-0.216,0.053-0.066,0.297-0.283,0.379
	c-0.138-0.238,0.111-0.291,0.117-0.48c0.007-0.242-0.397-0.655-0.542-0.631c-0.086,0.015-0.13,0.147-0.214,0.252
	c-0.134,0.175-0.285,0.265-0.282,0.581c-0.628,0.468-1.001,1.171-2.1,1.187c-1.402,0.021-2.552-1.255-3.21-2.171
	c-0.266-0.369-0.417-0.789-0.685-1.111c-0.227,0.109-0.274,0.401-0.377,0.606c-0.314,0.629-0.741,1.191-1.063,1.817
	c-0.245,0.108-0.429,0.282-0.52,0.557c-0.385,0.072-0.662,0.381-1.038,0.529c-0.374,0.147-0.837,0.137-1.227,0.328
	c0.034,0.457,0.297,0.834,0.471,1.237c0.514,1.181,1.097,2.353,1.652,3.535c1.136,2.416,2.221,4.661,2.973,7.473
	c0.25,0.93,0.5,1.989,0.426,3.029c-0.074,1.032-0.467,1.776-1.038,2.449c-0.579,0.682-1.345,1.447-2.596,1.337
	c-0.843-0.073-1.44-0.658-1.864-1.211c-1.35-1.753-1.957-4.234-2.525-6.867c-0.544-2.519-0.97-5.325-1.25-8.255
	c-0.043-0.438-0.107-0.906-0.19-1.389c-0.065-0.391-0.135-1.146-0.283-1.288c-0.129-0.124-0.508-0.081-0.778-0.101
	c-3.426-0.267-5.375-2.239-5.854-5.706c-0.071-0.521-0.06-1.068-0.188-1.616c-1.097,0.024-2.026,0.29-2.831,0.631
	c-2.108,0.894-4.136,2.693-4.272,5.732c-0.012,0.273,0.074,0.798-0.047,0.959c-0.118,0.155-0.808,0.469-0.968,0.454
	c-0.288-0.027-0.422-0.521-0.708-0.581c-0.11-0.69-0.395-1.251-0.589-1.918c-0.141-0.48-0.289-1.004-0.401-1.592
	c-0.148-0.77-0.285-1.708-0.52-2.473c-0.045-0.148-0.172-0.651-0.448-0.53c-0.238,0.103,0.115,0.902,0.165,1.085
	c0.117,0.428,0.18,0.792,0.189,1.263c-0.192-0.354-0.244-0.773-0.377-1.263c-0.084-0.306-0.24-1.026-0.473-1.136
	c-0.265-0.126-0.793-0.028-1.109,0.025c-2.321,0.385-2.804,2.882-3.422,5.049c-0.354,1.237-0.795,2.476-1.51,3.358
	c-0.376,0.462-0.684,0.936-1.133,1.287c-0.215,0.167-0.472,0.301-0.732,0.454c-0.466,0.276-0.99,0.727-1.722,0.581
	c0.459-0.275,1.161-0.29,1.439-0.758c-0.926,0.137-1.656,0.253-2.548,0.228c-0.776-0.023-1.794-0.471-2.407-0.782
	c-0.295-0.15-0.643-0.386-0.968-0.632c-0.266-0.201-1.128-1.202-1.109-0.253c-0.497-0.255-1.181,0.182-1.746,0.329
	c-0.799,0.207-1.758,0.194-2.432-0.076c-0.223-0.091-0.488-0.151-0.683-0.328c0.226-0.228,0.582-0.165,0.873-0.201
	c0.799-0.102,1.878-0.351,2.478-0.707c0.122-0.073,0.201-0.196,0.283-0.303c0.185-0.021,0.506-0.133,0.542-0.354
	c0.038-0.222-0.207-0.535-0.33-0.758c-0.6-1.083-1.18-2.732-0.85-4.444c0.114-0.589,0.397-1.066,0.473-1.665
	c-0.183-0.201-0.507-0.036-0.638,0.076c-0.35,0.299-0.522,1.322-0.589,1.943c-0.09,0.831-0.025,1.724,0.094,2.347
	c-0.651-1.245-0.206-3.442,0.4-4.317c0.152-0.217,0.588-0.362,0.897-0.429c1.022-0.22,1.92-0.263,2.997-0.152
	c1.395,0.145,2.223,1.39,2.219,2.752c-0.003,1.127-0.475,2.124-0.896,2.878c-0.204,0.365-0.427,0.632-0.567,1.062
	c-0.292,0.104-0.396,0.331-0.638,0.58c-0.125,0.129-0.325,0.243-0.331,0.403c-0.007,0.205,0.326,0.433,0.497,0.557
	c0.577,0.419,1.412,0.812,2.124,0.984c1.064,0.258,2.582,0.14,3.328-0.454c0.273-0.218,0.438-0.631,0.684-0.885
	c0.097-0.099,0.208-0.132,0.284-0.202c0.49-0.451,0.789-1.488,1.014-2.272c0.268-0.929,0.467-1.925,0.874-2.928
	c0.74-1.829,1.903-3.199,4.106-3.333c0.605-0.037,1.208-0.057,1.864,0.101c0.182,0.044,0.596,0.401,0.707,0.58
	c0.264,0.423,0.395,1.107,0.543,1.717c0.146,0.6,0.215,1.284,0.401,1.842c0.081,0.24,0.243,0.361,0.26,0.683
	c0.18-0.036,0.187-0.278,0.235-0.43c0.054-0.165,0.135-0.337,0.165-0.505c0.019-0.104,0-0.208,0.024-0.304
	c0.064-0.249,0.307-0.502,0.472-0.732c0.184-0.256,0.334-0.524,0.495-0.707c0.525-0.596,1.251-0.942,1.747-1.489
	c-0.076-0.089-0.203,0.002-0.354-0.026c0.139-0.307,0.453-0.424,0.661-0.656c-0.673,0.205-1.191,0.577-1.817,0.833
	c0.332-0.477,1.075-0.863,1.723-1.187c0.251-0.126,0.768-0.438,0.874-0.076c0.209-0.019,0.397-0.062,0.613-0.075
	c0.096,0.095-0.085,0.198-0.023,0.252c0.995-0.283,1.874-0.565,3.068-0.732c0.354-0.049,0.824-0.185,1.156-0.102
	c0.184,0.047,0.745,0.614,0.778,0.859c0.054,0.402-0.016,0.798,0,1.161c0.045,1.065,0.229,2.035,0.566,2.828
	c0.23,0.543,0.527,0.904,0.942,1.288c0.874,0.801,1.576,1.255,3.259,1.337c0.163-0.463-0.049-0.945-0.143-1.389
	c-0.665-3.137-1.416-6.296-1.651-9.946c-0.299-4.595,0.332-8.484,3.444-9.594c1.938-0.69,3.657-0.21,4.532,1.212
	c0.832,1.356,1.227,3.169,1.227,5.378c0,3.302-0.586,6.037-1.251,8.71c-0.108,0.44-0.239,0.872-0.33,1.313
	c-0.089,0.437-0.272,0.835-0.377,1.262c-0.03,0.119-0.023,0.311-0.071,0.404c-0.215,0.414-0.344,0.881-0.495,1.338
	c-0.149,0.447-0.358,0.942-0.307,1.49c0.712,0.117,1.447-0.164,1.462-0.96c0.062-0.084,0.17,0.018,0.26-0.05
	c0.256-0.191,0.245-0.419,0.378-0.631c0.066-0.105,0.185-0.171,0.26-0.279c0.139-0.195,0.288-0.506,0.425-0.782
	c0.133-0.268,0.313-0.59,0.354-0.833c0.042-0.249-0.022-0.534-0.048-0.782c-0.184-1.843,0.333-3.449,1.016-4.646
	c0.702-1.235,1.912-2.643,3.634-2.777c0.947-0.074,2.032,0.046,2.761,0.378c0.141,0.065,0.593,0.2,0.638,0.405
	c0.066,0.317-0.353,0.45-0.261,0.757c0.063,0.205,0.361,0.062,0.544,0.177c0.132,0.319,0.03,0.689,0.094,1.009
	c0.046,0.224,0.189,0.301,0.212,0.53c0.122,1.134-0.112,2.478,0,3.661c0.043,0.449,0.255,0.964,0.426,1.389
	c0.352,0.878,0.803,1.533,1.581,1.969c0.631,0.354,1.642,0.761,2.288,0.151c0.358-0.336,0.66-1.034,0.873-1.642
	c0.474-1.337,0.924-2.324,1.558-3.483c0.64-1.163,1.063-1.982,2.007-2.828c0.54-0.482,1.214-0.953,2.102-0.959
	c1.039-0.007,1.703,0.644,2.193,1.389c0.496,0.752,0.779,1.655,1.085,2.55c0.251-0.294,0.335-0.719,0.521-1.061
	c0.185-0.343,0.401-0.641,0.637-0.909c0.065-0.056,0.116,0.08,0.213,0c1.078-0.822,1.887-1.607,3.492-1.464
	c1.306,0.116,2.311,0.895,2.831,2.196c0.522,1.302,0.65,2.758,1.181,3.964c0.521,1.186,1.365,2.117,2.997,2.019
	c0.554-0.032,0.867-0.216,1.204-0.58c0.188-0.206,0.432-0.502,0.448-0.782c0.021-0.351-0.362-0.86-0.497-1.237
	c-0.17-0.482-0.257-0.906-0.33-1.44c0.312,0.417,0.382,1.09,0.709,1.49c0.127-0.123-0.092-0.479-0.022-0.531
	c0.083,0.006,0.187,0.306,0.375,0.354c0.09,0.014,0.062,0.043,0.049-0.05c0.024-0.118,0.07,0.13,0.142,0.126
	c0.207-0.285,0.285-0.671,0.377-1.036c0.659-2.573,0.669-6.067,0.639-9.214c-0.178-0.047-0.446-0.029-0.474-0.278
	c-0.024-0.235,0.159-0.346,0.45-0.354c-0.017-0.328,0.038-0.732-0.049-0.984c-0.115-0.095-0.194-0.029-0.306-0.076
	c-0.121-0.05-0.176-0.175-0.308-0.202c-0.258-0.052-0.573,0.035-0.827-0.051c-0.172-0.058-0.304-0.222-0.447-0.202
	c-0.275,0.039-0.266,0.887-0.308,1.313c-0.218,2.286-0.3,5.413,0.024,7.498c0.135,0.869,0.356,1.964,0.472,2.575
	c-0.068-0.02-0.117-0.143-0.142-0.202c-0.262-0.647-0.366-1.486-0.424-2.322c-0.067-0.937-0.231-1.882-0.284-2.828
	c-0.057-1.015-0.09-2.037-0.048-3.08c0.044-0.996,0.107-1.999,0.096-2.954c-0.806-0.203-2.031-0.122-3.115-0.177
	c-0.356-0.018-0.721-0.141-1.016-0.076c-0.171,0.038-0.364,0.294-0.613,0.328c-0.15,0.02-0.36-0.042-0.566-0.025
	c-0.359,0.03-0.631,0.082-0.85,0c-0.246-0.093-0.295-0.321-0.495-0.404c-0.162-0.067-0.395-0.06-0.613-0.126
	c-0.461-0.139-1.213-0.448-1.794-0.404c-0.157,0.012-0.304,0.115-0.449,0.126c-0.116,0.009-0.231-0.043-0.353-0.051
	c-0.326-0.021-0.67,0.135-1.015,0.126c-0.102-0.002-0.214-0.05-0.308-0.05c-0.34-0.002-0.658,0.132-0.849-0.025
	c-0.188-0.154-0.203-0.618-0.049-0.782c0.139-0.147,0.308-0.054,0.474-0.102c0.253-0.073,0.392-0.43,0.731-0.479
	c0.626-0.091,1.568-0.029,2.241,0.025c0.375,0.03,0.811,0.199,0.85-0.176c0.093,0.125,0.123,0.23,0.26,0.277
	c0.188,0.066,0.43-0.018,0.638,0c0.107,0.01,0.219,0.085,0.33,0.101c0.173,0.024,0.338-0.037,0.519-0.025
	c0.299,0.02,0.649,0.107,1.038,0.126c0.764,0.037,1.637-0.044,2.432,0.05c0.214,0.025,0.408,0.144,0.613,0.177
	c0.688,0.112,1.354,0.096,1.981,0.177c0.355-0.478,0.392-1.319,0.544-2.07c0.288-1.428,0.599-2.903,1.321-3.888
	c0.648-0.11,0.718,0.29,0.85,0.833c0.072,0.298,0.137,0.535,0.189,0.783c0.155,0.741,0.215,1.494,0.519,1.742
	c0.141,0.759,0.275,1.523,0.424,2.272c1.722,0.206,4.224,0.48,6.207,0.581c0.352,0.018,0.737,0.098,0.968,0.05
	c0.164-0.034,0.277-0.234,0.449-0.277c0.167-0.042,0.418,0.025,0.684,0.05c0.11,0.011,0.25-0.019,0.33,0
	c0.184,0.044,0.548,0.237,0.567,0.379c0.03,0.227-0.153,0.249-0.26,0.379c0.026,0.434-0.423,0.365-0.873,0.455
	c-0.433,0.085-1.169,0.268-1.629,0.176c-0.14-0.028-0.223-0.178-0.354-0.202c-0.094-0.017-0.243,0.06-0.401,0.076
	c-0.198,0.021-0.438-0.022-0.565,0c-0.271,0.049-0.468,0.226-0.708,0.227c-0.261,0.001-0.452-0.149-0.613,0.102
	c-0.228-0.111-0.693-0.17-0.874,0.025c-0.1-0.065-0.938-0.34-0.99-0.05c-0.05,0.276,0.456,0.019,0.519,0.328
	c0.064,0.324-0.195,0.239-0.26,0.455c-0.048,0.163,0.119,0.131,0.119,0.354c-0.002,0.151-0.152,0.181-0.189,0.353
	c-0.062,0.28,0.266,1.72-0.117,1.742c-0.269,0.017-0.207-0.563-0.284-0.833c-0.082,0.042-0.19,0.265-0.378,0.278
	c-0.046,0.242,0.001,0.549-0.188,0.581c-0.265,0.043-0.236-0.45-0.307-0.732c-0.069-0.074-0.21,0.169-0.402,0.126
	c0.117,1.565,0.094,3.329,0.118,4.999c0.017,1.222-0.17,2.4-0.425,3.434c-0.091,0.37-0.152,0.73-0.307,0.959
	c-0.071,0.106-0.206,0.152-0.282,0.252c-0.128,0.167-0.207,0.47-0.31,0.682c-0.111,0.234-0.218,0.447-0.329,0.656
	c0.896,0.863,2.381,1.235,3.588,0.782c1.112-0.417,1.958-1.396,2.549-2.373c0.622-1.031,1.16-2.087,1.581-3.408
	c0.283-0.892,0.61-1.879,0.849-2.929c0.085-0.368,0.227-0.786,0.189-1.06c-0.051-0.371-0.506-0.656-0.26-1.036
	c0.148-0.108,0.288,0.005,0.425,0.051c0.521-0.349,0.805-0.036,1.134,0.404c1.128,1.517,2.285,3.165,2.761,5.301
	c0.467,2.105,0.018,4.3-0.969,5.579c-0.146,0.19-0.338,0.399-0.544,0.606c-0.191,0.196-0.399,0.474-0.565,0.556
	c-0.063,0.033-0.223,0.054-0.353,0.101c-0.498,0.181-1.482,0.114-1.818,0.228c-0.459-0.132-0.953-0.681-0.802-1.01
	c-0.195-0.344-0.606-0.793-0.497-1.086C136.451,25.809,136.527,25.788,136.39,25.62z M127.539,7.063
	c-0.217,0.887-0.459,1.861-0.446,2.802c0.688,0.19,1.327,0.021,1.768-0.303c0.006-0.21,0.162-0.481,0.214-0.757
	c0.18-0.97-0.085-2.433-0.308-3.434c-0.069-0.315-0.119-0.794-0.307-0.808C128.03,5.197,127.763,6.146,127.539,7.063z
	 M86.288,27.513c0.113-0.092,0.283-0.694,0.377-0.985c0.814-2.51,1.472-4.975,1.983-7.7c0.291-1.554,0.574-3.159,0.661-4.898
	c0.088-1.796,0.061-3.703-0.567-4.897c-0.347-0.658-1.009-1.19-1.959-1.111c-1.827,0.152-2.764,1.263-3.232,3.004
	c-0.324,1.205-0.443,2.776-0.354,4.343c0.029,0.51,0.034,1.037,0.095,1.515c0.028,0.223,0.113,0.378,0.142,0.58
	c0.063,0.468,0.061,0.938,0.118,1.389c0.285,2.223,0.721,4.32,1.155,6.387c0.178,0.838,0.222,1.708,0.544,2.475
	C85.544,27.603,86.069,27.689,86.288,27.513z M131.693,11.43c-0.036,0.218,0.194,0.276,0.235,0.48c0.064,0.304-0.085,0.613,0,0.935
	c0.051-0.514,0.101-0.875,0.023-1.415C131.874,11.374,131.771,11.374,131.693,11.43z M130.584,12.339
	c0.04-0.088,0.053-0.333-0.069-0.328C130.363,12.018,130.375,12.417,130.584,12.339z M137.381,21.731
	c-0.244,0.655-0.563,1.24-0.873,1.817c-0.313,0.58-0.68,1.109-1.015,1.667c0.398,0.073,0.639,0.153,1.015,0
	c0.366,0.272,0.952,0.313,1.015,0.909c-0.357,0.317-0.663-0.41-0.896-0.152c0.078,0.057,0.004,0.148,0.047,0.254
	c0.071,0.168,0.264,0.322,0.355,0.504c0.031,0.067,0.006,0.096,0.046,0.177c0.022,0.047,0.106,0.16,0.165,0.228
	c0.144,0.161,0.724,0.175,0.968,0.101c0.346-0.105,0.415-0.184,0.613-0.429c0.123-0.15,0.268-0.277,0.354-0.379
	c0.851-0.998,1.438-2.873,1.204-4.671c-0.242-1.852-1.036-3.17-1.699-4.317c-0.023,0-0.047,0-0.071,0
	C138.202,18.907,137.878,20.399,137.381,21.731z M98.371,23.422c0.071-0.464,0.173-0.853,0.142-1.364
	c-0.041-0.666-0.18-1.152-0.26-1.868c-0.056-0.501-0.046-1.678-0.448-1.691c-0.229-0.008-0.219,0.198-0.425,0.201
	c-0.12,0.003-0.29-0.121-0.426-0.176c-0.281-0.116-0.631-0.223-0.919-0.077c-0.764,0.389-1.296,1.248-1.676,2.122
	c-0.288,0.663-0.595,1.355-0.802,2.096c-0.075,0.263-0.189,0.538-0.214,0.756c-0.089,0.85,0.363,1.905,0.779,2.475
	c0.453,0.618,1.038,1.232,1.746,1.464c0.286,0.094,0.666,0.053,0.897-0.076c0.423-0.232,0.825-0.751,0.685-1.313
	c0.465,0.025,0.465-0.548,0.425-0.984C98.237,24.703,98.272,24.064,98.371,23.422z M92.094,20.444
	c-0.355,0.881-0.71,1.918-0.496,2.802c0.479-0.25,0.469-1.005,0.589-1.616c0.232-1.16,0.646-2.173,1.086-3.055
	c-0.004-0.019-0.018-0.029-0.045-0.025C92.829,18.943,92.396,19.695,92.094,20.444z M50.488,23.6
	c-0.238,0.173-0.335,0.832-0.377,1.211c-0.125,1.14,0.107,1.959,0.448,2.727c0.124,0.279,0.412,0.954,0.637,0.96
	c0.148,0.003,0.455-0.43,0.59-0.632c0.578-0.865,1.379-1.978,1.227-3.433c-0.032-0.31-0.178-0.727-0.354-0.859
	c-0.263-0.198-0.792-0.182-1.18-0.151C51.16,23.448,50.7,23.444,50.488,23.6z M100.023,26.3c-0.189-0.345-0.286-0.789-0.639-0.959
	c-0.103,0.284-0.362,0.669-0.354,1.01c0.011,0.385,0.361,0.551,0.732,0.631c0.111,0.277,0.356,0.514,0.731,0.43
	c-0.006-0.153-0.077-0.237-0.095-0.379c0.069-0.019,0.146-0.029,0.189-0.076C100.495,26.637,100.239,26.489,100.023,26.3z
	 M104.957,27.285c-0.214,0.227-0.522,0.304-0.663,0.632c0.493-0.131,0.863-0.528,1.133-0.908c0.288-0.404,0.467-0.923,0.614-1.465
	c-0.03-0.002-0.033-0.032-0.07-0.025C105.656,26.145,105.392,26.824,104.957,27.285z M100.754,27.033
	c-0.031,0-0.051,0.013-0.07,0.025c0.039,0.385,0.535,0.541,0.922,0.707c0.346,0.149,0.719,0.305,0.988,0.328
	c0.136,0.012,0.275,0.044,0.355-0.076C102.145,27.768,101.437,27.414,100.754,27.033z M100.519,27.412
	c0.042,0.278,0.361,0.38,0.613,0.354C101.033,27.55,100.84,27.306,100.519,27.412z M86.878,38.924
	c0.401,2.166,0.952,4.42,1.794,6.21c0.257,0.547,0.674,1.321,1.086,1.565c0.11,0.066,0.486,0.221,0.589,0.227
	c0.27,0.017,0.793-0.239,0.991-0.377c0.419-0.292,0.939-0.963,1.109-1.54c0.216-0.731,0.048-1.768-0.118-2.476
	c-0.169-0.726-0.398-1.428-0.613-2.07c-1.188-3.556-2.899-6.902-4.437-10.173c-0.309-0.654-0.331-1.125-1.109-1.061
	c-0.223,0.018-0.409,0.134-0.59,0.252C85.991,32.743,86.321,35.913,86.878,38.924z"/>
<path fill-rule="evenodd" clip-rule="evenodd" d="M97.003,24.962c0.063,0.034,0.04,0.159,0.093,0.202
	C97.052,25.211,97.007,25.043,97.003,24.962z"/>
<path fill-rule="evenodd" clip-rule="evenodd" d="M30.264,31.653c-0.005-0.021,0.009-0.024,0.023-0.026
	c0.295-0.477,0.817-0.826,1.204-1.286c0.245-0.292,0.52-0.67,0.755-1.035c0.316-0.493,0.637-1.24,0.85-1.868
	c0.082-0.244,0.161-0.515,0.377-0.505c0.411,0.02,0.15,0.886,0.022,1.187c-0.067,0.158-0.202,0.3-0.283,0.479
	c-0.227,0.507-0.443,1.034-0.755,1.49c-0.208,0.307-0.545,0.587-0.802,0.858C31.275,31.35,30.898,31.912,30.264,31.653z"/>
<path fill-rule="evenodd" clip-rule="evenodd" d="M60.777,30.643c-0.303,0.778-0.87,1.492-1.651,1.844
	c0.244-0.336,0.615-0.537,0.896-0.834C60.307,31.353,60.56,31.013,60.777,30.643z"/>
<path fill-rule="evenodd" clip-rule="evenodd" d="M29.721,32.057c-0.102,0.089-0.249,0.154-0.472,0.202
	c0.069-0.117-0.145-0.477,0.212-0.505c0.058,0.188,0.287,0.149,0.283,0.303C29.74,32.085,29.721,32.071,29.721,32.057z"/>
</svg>
